<?xml version="1.0" standalone="no"?>
<!DOCTYPE svg PUBLIC "-//W3C//DTD SVG 20010904//EN"
 "http://www.w3.org/TR/2001/REC-SVG-20010904/DTD/svg10.dtd">
<svg version="1.0" xmlns="http://www.w3.org/2000/svg"
 width="260.000000pt" height="260.000000pt" viewBox="0 0 260.000000 260.000000"
 preserveAspectRatio="xMidYMid meet">
<metadata>
Created by potrace 1.11, written by Peter Selinger 2001-2013
</metadata>
<g transform="translate(0.000000,260.000000) scale(0.100000,-0.100000)"
fill="#000000" stroke="none">
<path d="M418 1775 c-12 -11 -335 -22 -385 -14 -27 4 -33 -4 -33 -47 0 -25 4
-43 8 -40 17 10 79 -14 104 -41 14 -16 33 -50 41 -78 8 -27 38 -122 65 -210
42 -134 102 -334 200 -665 9 -30 17 -56 18 -58 1 -1 27 5 57 15 l57 17 21 66
c12 36 27 79 34 95 7 17 31 82 53 145 22 63 62 177 89 252 26 76 51 138 54
138 6 0 61 -179 155 -504 35 -120 65 -221 68 -223 10 -10 106 33 114 52 11 23
19 44 101 255 180 464 273 696 285 716 9 12 30 24 50 28 20 4 36 8 36 9 1 1 3
19 6 39 l6 37 -144 0 c-79 0 -175 3 -214 6 l-72 6 -6 -37 c-4 -20 -5 -38 -3
-40 2 -3 41 -6 85 -7 62 -2 85 -7 101 -21 27 -25 27 -28 -10 -143 -34 -107
-236 -669 -249 -693 -8 -13 -9 -13 -14 0 -10 28 -145 515 -176 639 -39 152
-41 165 -23 190 12 18 28 23 118 35 16 2 21 12 23 44 3 38 1 41 -20 37 -60
-10 -173 -16 -278 -14 -136 1 -151 1 -155 -3 -1 -2 -5 -20 -8 -40 -4 -26 -2
-38 6 -39 87 -5 128 -38 157 -124 19 -58 21 -81 7 -115 -4 -8 -47 -125 -96
-260 -49 -135 -99 -271 -112 -303 -24 -63 -31 -62 -48 9 -5 21 -32 120 -61
219 -72 255 -130 483 -130 516 0 38 22 57 78 64 70 10 72 11 72 53 0 28 -4 39
-15 39 -8 0 -16 -1 -17 -2z"/>
<path d="M1673 1772 c-6 -4 -13 -47 -17 -97 -4 -49 -9 -119 -13 -153 l-6 -64
37 5 c21 3 40 7 42 10 3 3 12 35 19 72 8 37 20 74 26 82 30 35 85 50 209 55
l55 3 0 -420 c1 -231 -2 -436 -7 -455 -10 -49 -47 -77 -112 -85 -44 -6 -55
-11 -60 -29 -15 -54 -26 -51 241 -51 l247 1 7 25 c16 57 15 59 -62 59 -134 0
-133 -1 -125 363 7 313 16 532 25 589 1 3 13 5 29 3 15 -2 55 -6 89 -10 110
-11 138 -38 163 -158 l12 -58 36 3 c37 4 37 5 36 49 0 24 -4 85 -9 134 -5 50
-8 98 -7 107 1 23 -16 27 -78 16 -105 -17 -649 -12 -751 7 -9 2 -20 0 -26 -3z"/>
</g>
</svg>
